# xmcd
#
# Track frame offsets:
#	150
#	12150
#	23850
#	43328
#	60543
#	72913
#	85906
#	110760
#	146552
#
# Disc length: 2132 seconds
#
# Revision: 5
# Processed by: cddbd v1.5.2PL0 Copyright (c) Steve Scherf et al.
# Submitted via: EasyCDDAExtractor 10.0.3.1
#
DISCID=7b085209
DTITLE=Canned Heat - Future Blues
DYEAR=1970
DGENRE=Blues
TTITLE0=Sugar Bee
TTITLE1=Shake It And Break It
TTITLE2=That's All Right, Mama
TTITLE3=My Time Ain't Long
TTITLE4=Skat
TTITLE5=Let's Work Together
TTITLE6=London Blues
TTITLE7=So Sad (The World's In A Tangle)
TTITLE8=Future Blues
EXTD=
EXTT0=
EXTT1=
EXTT2=
EXTT3=
EXTT4=
EXTT5=
EXTT6=
EXTT7=
EXTT8=
PLAYORDER=
